<svg width="450" height="450" viewBox="0 0 450 450" fill="none" xmlns="http://www.w3.org/2000/svg">
<path d="M417.906 356C417.906 359.062 417.375 361.792 416.312 364.188C415.229 366.583 413.635 368.479 411.531 369.875C409.406 371.25 406.76 371.938 403.594 371.938C400.927 371.938 398.688 371.448 396.875 370.469C395.063 369.49 393.604 368.156 392.5 366.469C391.396 364.781 390.562 362.865 390 360.719C389.438 358.552 389.042 356.281 388.812 353.906C388.521 351.115 388.25 348.865 388 347.156C387.729 345.448 387.333 344.208 386.812 343.438C386.292 342.667 385.521 342.281 384.5 342.281H384.312C382.333 342.281 380.802 342.906 379.719 344.156C378.635 345.385 378.094 347.135 378.094 349.406C378.094 351.802 378.625 353.708 379.688 355.125C380.729 356.542 382.042 357.479 383.625 357.938L382.625 370.25C379.708 369.625 377.187 368.396 375.062 366.562C372.917 364.729 371.271 362.365 370.125 359.469C368.958 356.552 368.375 353.177 368.375 349.344C368.375 346.677 368.688 344.125 369.312 341.688C369.938 339.229 370.906 337.052 372.219 335.156C373.531 333.24 375.219 331.729 377.281 330.625C379.323 329.521 381.771 328.969 384.625 328.969H417V341.594H410.344V341.969C411.844 342.74 413.167 343.771 414.312 345.062C415.438 346.354 416.323 347.906 416.969 349.719C417.594 351.531 417.906 353.625 417.906 356ZM408.719 352.188C408.719 350.229 408.333 348.5 407.562 347C406.771 345.5 405.708 344.323 404.375 343.469C403.042 342.615 401.531 342.188 399.844 342.188H394.75C395.021 342.604 395.271 343.177 395.5 343.906C395.708 344.615 395.906 345.417 396.094 346.312C396.26 347.208 396.417 348.104 396.562 349C396.688 349.896 396.802 350.708 396.906 351.438C397.135 353 397.5 354.365 398 355.531C398.5 356.698 399.177 357.604 400.031 358.25C400.865 358.896 401.906 359.219 403.156 359.219C404.969 359.219 406.354 358.562 407.312 357.25C408.25 355.917 408.719 354.229 408.719 352.188Z" fill="white"/>
<path d="M389.25 309.828H417V323.141H369V310.453H377.469V309.891C374.677 308.828 372.469 307.047 370.844 304.547C369.198 302.047 368.375 299.016 368.375 295.453C368.375 292.12 369.104 289.214 370.562 286.734C372.021 284.255 374.104 282.328 376.812 280.953C379.5 279.578 382.708 278.891 386.438 278.891H417V292.203H388.812C385.875 292.182 383.583 292.932 381.938 294.453C380.271 295.974 379.438 298.068 379.438 300.734C379.438 302.526 379.823 304.109 380.594 305.484C381.365 306.839 382.49 307.901 383.969 308.672C385.427 309.422 387.188 309.807 389.25 309.828Z" fill="white"/>
<path d="M417.781 255.211C417.781 258.857 416.844 262.159 414.969 265.117C413.073 268.055 410.292 270.388 406.625 272.117C402.938 273.826 398.417 274.68 393.062 274.68C387.562 274.68 382.99 273.794 379.344 272.023C375.677 270.253 372.937 267.898 371.125 264.961C369.292 262.003 368.375 258.763 368.375 255.242C368.375 252.555 368.833 250.315 369.75 248.523C370.646 246.711 371.771 245.253 373.125 244.148C374.458 243.023 375.771 242.169 377.062 241.586V241.18H353V227.898H417V241.023H409.312V241.586C410.646 242.211 411.969 243.096 413.281 244.242C414.573 245.367 415.646 246.836 416.5 248.648C417.354 250.44 417.781 252.628 417.781 255.211ZM407.188 250.992C407.188 248.846 406.604 247.034 405.438 245.555C404.25 244.055 402.594 242.909 400.469 242.117C398.344 241.305 395.854 240.898 393 240.898C390.146 240.898 387.667 241.294 385.562 242.086C383.458 242.878 381.833 244.023 380.688 245.523C379.542 247.023 378.969 248.846 378.969 250.992C378.969 253.18 379.563 255.023 380.75 256.523C381.938 258.023 383.583 259.159 385.688 259.93C387.792 260.701 390.229 261.086 393 261.086C395.792 261.086 398.26 260.701 400.406 259.93C402.531 259.138 404.198 258.003 405.406 256.523C406.594 255.023 407.188 253.18 407.188 250.992Z" fill="white"/>
<path d="M417 221.453H369V208.547H377.375V208.047C374.396 207.172 372.146 205.703 370.625 203.641C369.083 201.578 368.312 199.203 368.312 196.516C368.312 195.849 368.354 195.13 368.438 194.359C368.521 193.589 368.635 192.911 368.781 192.328H380.594C380.406 192.953 380.24 193.818 380.094 194.922C379.948 196.026 379.875 197.036 379.875 197.953C379.875 199.911 380.302 201.661 381.156 203.203C381.99 204.724 383.156 205.932 384.656 206.828C386.156 207.703 387.885 208.141 389.844 208.141H417V221.453Z" fill="white"/>
<path d="M417.938 170.305C417.938 175.242 416.938 179.492 414.938 183.055C412.917 186.596 410.063 189.326 406.375 191.242C402.667 193.159 398.281 194.117 393.219 194.117C388.281 194.117 383.948 193.159 380.219 191.242C376.49 189.326 373.583 186.628 371.5 183.148C369.417 179.648 368.375 175.544 368.375 170.836C368.375 167.669 368.885 164.721 369.906 161.992C370.906 159.242 372.417 156.846 374.438 154.805C376.458 152.742 379 151.138 382.062 149.992C385.104 148.846 388.667 148.273 392.75 148.273H396.406V188.805H388.156V160.805C386.24 160.805 384.542 161.221 383.062 162.055C381.583 162.888 380.427 164.044 379.594 165.523C378.74 166.982 378.312 168.68 378.312 170.617C378.312 172.638 378.781 174.43 379.719 175.992C380.635 177.534 381.875 178.742 383.438 179.617C384.979 180.492 386.698 180.94 388.594 180.961H396.438C398.812 180.961 400.865 180.523 402.594 179.648C404.323 178.753 405.656 177.492 406.594 175.867C407.531 174.242 408 172.315 408 170.086C408 168.607 407.792 167.253 407.375 166.023C406.958 164.794 406.333 163.742 405.5 162.867C404.667 161.992 403.646 161.326 402.438 160.867L403.25 148.555C406.208 149.18 408.792 150.461 411 152.398C413.188 154.315 414.896 156.794 416.125 159.836C417.333 162.857 417.938 166.346 417.938 170.305Z" fill="white"/>
<path d="M417 134.961L369 148.023V134.555L401.25 127.117V126.68L369 118.93V105.711L401.062 97.8359V97.4297L369 90.1172V76.6797L417 89.7109V103.805L386.812 112.055V112.648L417 120.898V134.961Z" fill="white"/>
<path d="M353 196.69L312.244 296.012H310.028L266.079 188.909H202.188V375H33V264H57.3066L68.2334 227.807H130.585L141.512 264H196.909L134.524 75H353V196.69Z" fill="white"/>
<path d="M253.892 267.943L295.403 375H252.415V267.943H253.892Z" fill="white"/>
<path d="M353 375H326.873L353 308.077V375Z" fill="white"/>
<path d="M118.99 189.397H79.8281L98.6709 126.983H100.147L118.99 189.397Z" fill="white"/>
<path d="M33 169.808V75H64.2939L33 169.808Z" fill="white"/>
</svg>
